<?xml version="1.0" ?><!DOCTYPE svg  PUBLIC '-//W3C//DTD SVG 1.1//EN'  'http://www.w3.org/Graphics/SVG/1.1/DTD/svg11.dtd'><svg enable-background="new 0 0 512 512" height="512px" id="Layer_1" version="1.1" viewBox="0 0 512 512" width="512px" xml:space="preserve" xmlns="http://www.w3.org/2000/svg" xmlns:xlink="http://www.w3.org/1999/xlink"><g><path d="M262.524,164.624c-49.466,0-89.592,40.119-89.592,89.596c0,49.487,40.126,89.606,89.592,89.606   c49.487,0,89.613-40.119,89.613-89.606C352.138,204.743,312.012,164.624,262.524,164.624z M262.524,320.136   c-36.39,0-65.902-29.513-65.902-65.916c0-36.396,29.513-65.903,65.902-65.903c36.41,0,65.924,29.506,65.924,65.903   C328.448,290.623,298.935,320.136,262.524,320.136z" fill="#010101"/><path d="M264.078,149.221c0,0-39.031-73.758,0-73.758C303.103,75.462,264.078,149.221,264.078,149.221z" fill="#010101"/><path d="M261.922,363.328c0,0,39.053,73.737,0,73.737C222.905,437.045,261.922,363.328,261.922,363.328z" fill="#010101"/><path d="M186.536,331.194c0,0-24.539,79.766-52.142,52.148C106.817,355.746,186.536,331.194,186.536,331.194z" fill="#010101"/><path d="M155.941,255.181c0,0-73.745,39.048-73.745,0C82.224,216.177,155.941,255.181,155.941,255.181z" fill="#010101"/><path d="M188.068,179.794c0,0-79.746-24.524-52.142-52.142C163.503,100.086,188.068,179.794,188.068,179.794z" fill="#010101"/><path d="M428.852,254.552c0,49.668-40.276,89.931-89.935,89.931c-49.657,0-89.928-40.263-89.928-89.931   c0-49.672,40.271-89.928,89.928-89.928C388.575,164.624,428.852,204.88,428.852,254.552z" fill="#010101"/></g></svg>